<svg width="167" height="69" viewBox="0 0 167 69" fill="none" xmlns="http://www.w3.org/2000/svg">
<rect x="104" y="20" width="24" height="24" fill="#B91C1C"/>
<circle cx="116" cy="32" r="7" fill="white"/>
<path d="M16.044 21.788H7.26C7.26 19.796 8.196 18.8 10.068 18.8H28.176C28.176 20.792 27.24 21.788 25.368 21.788H19.428V41.516C19.428 42.428 19.14 43.124 18.564 43.604C17.988 44.084 17.148 44.324 16.044 44.324V21.788ZM39.0818 44.324C37.0898 44.324 35.3018 43.94 33.7178 43.172C32.1578 42.38 30.9338 41.3 30.0458 39.932C29.1578 38.54 28.7138 37.004 28.7138 35.324V27.404C28.7138 25.724 29.1578 24.212 30.0458 22.868C30.9338 21.5 32.1578 20.432 33.7178 19.664C35.3018 18.872 37.0898 18.476 39.0818 18.476C41.0978 18.476 42.8858 18.872 44.4458 19.664C46.0298 20.432 47.2658 21.5 48.1538 22.868C49.0418 24.212 49.4858 25.724 49.4858 27.404V35.324C49.4858 37.004 49.0418 38.54 48.1538 39.932C47.2658 41.3 46.0298 42.38 44.4458 43.172C42.8618 43.94 41.0738 44.324 39.0818 44.324ZM39.0818 41.372C41.3138 41.372 43.0538 40.82 44.3018 39.716C45.5498 38.612 46.1738 37.136 46.1738 35.288V27.476C46.1738 25.628 45.5498 24.164 44.3018 23.084C43.0538 21.98 41.3138 21.428 39.0818 21.428C36.8738 21.428 35.1458 21.98 33.8978 23.084C32.6498 24.164 32.0258 25.628 32.0258 27.476V35.288C32.0258 37.136 32.6498 38.612 33.8978 39.716C35.1458 40.82 36.8738 41.372 39.0818 41.372ZM55.3535 44C54.8735 44 54.4655 43.856 54.1295 43.568C53.7935 43.256 53.6255 42.872 53.6255 42.416V20.384C53.6255 19.928 53.7815 19.556 54.0935 19.268C54.4295 18.956 54.8495 18.8 55.3535 18.8H63.7775C65.8175 18.8 67.6175 19.184 69.1775 19.952C70.7375 20.72 71.9495 21.8 72.8135 23.192C73.7015 24.56 74.1455 26.132 74.1455 27.908V34.82C74.1455 36.596 73.7015 38.18 72.8135 39.572C71.9495 40.964 70.7255 42.056 69.1415 42.848C67.5815 43.616 65.7935 44 63.7775 44H55.3535ZM63.4175 41.048C65.7215 41.048 67.5215 40.508 68.8175 39.428C70.1135 38.324 70.7615 36.8 70.7615 34.856V27.872C70.7615 25.952 70.1135 24.452 68.8175 23.372C67.5215 22.292 65.7215 21.752 63.4175 21.752H57.0095V41.048H63.4175ZM88.3005 44.324C86.3085 44.324 84.5205 43.94 82.9365 43.172C81.3765 42.38 80.1525 41.3 79.2645 39.932C78.3765 38.54 77.9325 37.004 77.9325 35.324V27.404C77.9325 25.724 78.3765 24.212 79.2645 22.868C80.1525 21.5 81.3765 20.432 82.9365 19.664C84.5205 18.872 86.3085 18.476 88.3005 18.476C90.3165 18.476 92.1045 18.872 93.6645 19.664C95.2485 20.432 96.4845 21.5 97.3725 22.868C98.2605 24.212 98.7045 25.724 98.7045 27.404V35.324C98.7045 37.004 98.2605 38.54 97.3725 39.932C96.4845 41.3 95.2485 42.38 93.6645 43.172C92.0805 43.94 90.2925 44.324 88.3005 44.324ZM88.3005 41.372C90.5325 41.372 92.2725 40.82 93.5205 39.716C94.7685 38.612 95.3925 37.136 95.3925 35.288V27.476C95.3925 25.628 94.7685 24.164 93.5205 23.084C92.2725 21.98 90.5325 21.428 88.3005 21.428C86.0925 21.428 84.3645 21.98 83.1165 23.084C81.8685 24.164 81.2445 25.628 81.2445 27.476V35.288C81.2445 37.136 81.8685 38.612 83.1165 39.716C84.3645 40.82 86.0925 41.372 88.3005 41.372Z" fill="#C4C4C4"/>
<path d="M20.428 60C20.268 60 20.128 59.944 20.008 59.832C19.896 59.712 19.84 59.572 19.84 59.412V52.428C19.84 51.804 20.216 51.492 20.968 51.492V59.004H24.652C24.932 59.004 25.148 59.092 25.3 59.268C25.452 59.436 25.528 59.68 25.528 60H20.428ZM27.5812 52.992C27.3572 52.992 27.1692 52.92 27.0172 52.776C26.8652 52.632 26.7892 52.452 26.7892 52.236C26.7892 52.02 26.8652 51.844 27.0172 51.708C27.1692 51.564 27.3572 51.492 27.5812 51.492C27.7972 51.492 27.9812 51.564 28.1332 51.708C28.2852 51.844 28.3612 52.02 28.3612 52.236C28.3612 52.452 28.2852 52.632 28.1332 52.776C27.9812 52.92 27.7972 52.992 27.5812 52.992ZM27.0532 54.66C27.0532 54.396 27.1372 54.204 27.3052 54.084C27.4812 53.956 27.7452 53.892 28.0972 53.892V59.34C28.0972 59.604 28.0092 59.8 27.8332 59.928C27.6652 60.048 27.4052 60.108 27.0532 60.108V54.66ZM32.435 60.108C31.867 60.108 31.443 59.948 31.163 59.628C30.883 59.3 30.743 58.872 30.743 58.344V54.84H29.627C29.627 54.568 29.687 54.36 29.807 54.216C29.927 54.072 30.091 54 30.299 54H30.755V52.86C30.755 52.596 30.839 52.404 31.007 52.284C31.183 52.156 31.443 52.092 31.787 52.092V54H33.383C33.383 54.56 33.131 54.84 32.627 54.84H31.799V58.308C31.799 58.628 31.855 58.856 31.967 58.992C32.087 59.12 32.299 59.184 32.603 59.184C32.883 59.184 33.147 59.112 33.395 58.968C33.499 59.072 33.551 59.212 33.551 59.388C33.551 59.58 33.451 59.748 33.251 59.892C33.051 60.036 32.779 60.108 32.435 60.108ZM36.8999 60.108C36.3319 60.108 35.9079 59.948 35.6279 59.628C35.3479 59.3 35.2079 58.872 35.2079 58.344V54.84H34.0919C34.0919 54.568 34.1519 54.36 34.2719 54.216C34.3919 54.072 34.5559 54 34.7639 54H35.2199V52.86C35.2199 52.596 35.3039 52.404 35.4719 52.284C35.6479 52.156 35.9079 52.092 36.2519 52.092V54H37.8479C37.8479 54.56 37.5959 54.84 37.0919 54.84H36.2639V58.308C36.2639 58.628 36.3199 58.856 36.4319 58.992C36.5519 59.12 36.7639 59.184 37.0679 59.184C37.3479 59.184 37.6119 59.112 37.8599 58.968C37.9639 59.072 38.0159 59.212 38.0159 59.388C38.0159 59.58 37.9159 59.748 37.7159 59.892C37.5159 60.036 37.2439 60.108 36.8999 60.108ZM41.0214 60.108C40.4374 60.108 40.0014 59.948 39.7134 59.628C39.4254 59.3 39.2814 58.872 39.2814 58.344V52.26C39.2814 51.996 39.3654 51.804 39.5334 51.684C39.7094 51.556 39.9734 51.492 40.3254 51.492V58.308C40.3254 58.62 40.3894 58.844 40.5174 58.98C40.6454 59.116 40.8574 59.184 41.1534 59.184C41.4494 59.184 41.7214 59.112 41.9694 58.968C42.0734 59.088 42.1254 59.228 42.1254 59.388C42.1254 59.58 42.0254 59.748 41.8254 59.892C41.6254 60.036 41.3574 60.108 41.0214 60.108ZM45.4903 60.108C45.0023 60.108 44.5663 60.016 44.1823 59.832C43.7983 59.64 43.4983 59.38 43.2823 59.052C43.0663 58.716 42.9583 58.34 42.9583 57.924V56.148C42.9583 55.724 43.0703 55.34 43.2943 54.996C43.5263 54.652 43.8343 54.384 44.2183 54.192C44.6103 53.992 45.0343 53.892 45.4903 53.892C45.9463 53.892 46.3623 53.988 46.7383 54.18C47.1223 54.372 47.4223 54.636 47.6383 54.972C47.8623 55.308 47.9743 55.688 47.9743 56.112V56.88C47.9743 57.008 47.9263 57.116 47.8303 57.204C47.7343 57.292 47.6183 57.336 47.4823 57.336H43.9783V57.876C43.9783 58.284 44.1063 58.612 44.3623 58.86C44.6263 59.108 45.0023 59.232 45.4903 59.232C45.9783 59.232 46.3503 59.124 46.6063 58.908C46.8623 58.692 46.9903 58.4 46.9903 58.032C47.2303 58.016 47.4303 58.064 47.5903 58.176C47.7583 58.28 47.8423 58.436 47.8423 58.644C47.8423 58.9 47.7303 59.14 47.5063 59.364C47.2903 59.588 47.0023 59.768 46.6423 59.904C46.2823 60.04 45.8983 60.108 45.4903 60.108ZM47.0023 56.52V56.112C47.0023 55.712 46.8623 55.388 46.5823 55.14C46.3103 54.884 45.9463 54.756 45.4903 54.756C45.0343 54.756 44.6663 54.884 44.3863 55.14C44.1143 55.388 43.9783 55.712 43.9783 56.112V56.52H47.0023ZM54.6253 60.108C54.2173 60.108 53.8333 60.048 53.4733 59.928C53.1133 59.8 52.8213 59.62 52.5973 59.388C52.3813 59.156 52.2733 58.884 52.2733 58.572C52.2733 58.188 52.5053 57.98 52.9693 57.948C53.0493 58.396 53.2373 58.728 53.5333 58.944C53.8373 59.152 54.2213 59.256 54.6853 59.256C55.1493 59.256 55.5093 59.188 55.7653 59.052C56.0213 58.916 56.1493 58.708 56.1493 58.428C56.1493 58.228 56.0973 58.068 55.9933 57.948C55.8893 57.82 55.7213 57.712 55.4893 57.624C55.2653 57.528 54.9413 57.436 54.5173 57.348C53.9893 57.228 53.5693 57.1 53.2573 56.964C52.9453 56.828 52.7053 56.648 52.5373 56.424C52.3773 56.2 52.2973 55.904 52.2973 55.536C52.2973 55.224 52.3933 54.944 52.5853 54.696C52.7773 54.44 53.0413 54.244 53.3773 54.108C53.7213 53.964 54.1093 53.892 54.5413 53.892C54.9413 53.892 55.3173 53.948 55.6693 54.06C56.0293 54.172 56.3173 54.332 56.5333 54.54C56.7573 54.748 56.8693 54.988 56.8693 55.26C56.8693 55.444 56.7973 55.592 56.6533 55.704C56.5093 55.808 56.3093 55.868 56.0533 55.884C56.0293 55.532 55.8853 55.256 55.6213 55.056C55.3653 54.848 55.0053 54.744 54.5413 54.744C54.1573 54.744 53.8533 54.816 53.6293 54.96C53.4053 55.104 53.2933 55.296 53.2933 55.536C53.2933 55.792 53.3973 55.984 53.6053 56.112C53.8213 56.232 54.1853 56.348 54.6973 56.46C55.5373 56.628 56.1533 56.86 56.5453 57.156C56.9453 57.444 57.1453 57.856 57.1453 58.392C57.1453 58.936 56.9253 59.36 56.4853 59.664C56.0453 59.96 55.4253 60.108 54.6253 60.108ZM60.3725 60.108C59.8045 60.108 59.3805 59.948 59.1005 59.628C58.8205 59.3 58.6805 58.872 58.6805 58.344V54.84H57.5645C57.5645 54.568 57.6245 54.36 57.7445 54.216C57.8645 54.072 58.0285 54 58.2365 54H58.6925V52.86C58.6925 52.596 58.7765 52.404 58.9445 52.284C59.1205 52.156 59.3805 52.092 59.7245 52.092V54H61.3205C61.3205 54.56 61.0685 54.84 60.5645 54.84H59.7365V58.308C59.7365 58.628 59.7925 58.856 59.9045 58.992C60.0245 59.12 60.2365 59.184 60.5405 59.184C60.8205 59.184 61.0845 59.112 61.3325 58.968C61.4365 59.072 61.4885 59.212 61.4885 59.388C61.4885 59.58 61.3885 59.748 61.1885 59.892C60.9885 60.036 60.7165 60.108 60.3725 60.108ZM65.1661 60.108C64.6781 60.108 64.2421 60.016 63.8581 59.832C63.4741 59.64 63.1741 59.38 62.9581 59.052C62.7421 58.716 62.6341 58.34 62.6341 57.924V56.148C62.6341 55.724 62.7461 55.34 62.9701 54.996C63.2021 54.652 63.5101 54.384 63.8941 54.192C64.2861 53.992 64.7101 53.892 65.1661 53.892C65.6221 53.892 66.0381 53.988 66.4141 54.18C66.7981 54.372 67.0981 54.636 67.3141 54.972C67.5381 55.308 67.6501 55.688 67.6501 56.112V56.88C67.6501 57.008 67.6021 57.116 67.5061 57.204C67.4101 57.292 67.2941 57.336 67.1581 57.336H63.6541V57.876C63.6541 58.284 63.7821 58.612 64.0381 58.86C64.3021 59.108 64.6781 59.232 65.1661 59.232C65.6541 59.232 66.0261 59.124 66.2821 58.908C66.5381 58.692 66.6661 58.4 66.6661 58.032C66.9061 58.016 67.1061 58.064 67.2661 58.176C67.4341 58.28 67.5181 58.436 67.5181 58.644C67.5181 58.9 67.4061 59.14 67.1821 59.364C66.9661 59.588 66.6781 59.768 66.3181 59.904C65.9581 60.04 65.5741 60.108 65.1661 60.108ZM66.6781 56.52V56.112C66.6781 55.712 66.5381 55.388 66.2581 55.14C65.9861 54.884 65.6221 54.756 65.1661 54.756C64.7101 54.756 64.3421 54.884 64.0621 55.14C63.7901 55.388 63.6541 55.712 63.6541 56.112V56.52H66.6781ZM69.0353 54.744C69.0353 54.48 69.1153 54.272 69.2753 54.12C69.4433 53.968 69.6953 53.892 70.0313 53.892V54.564L69.7913 54.876L69.8273 54.924C70.0753 54.604 70.3593 54.352 70.6793 54.168C70.9993 53.984 71.3793 53.892 71.8193 53.892C72.5073 53.892 73.0633 54.084 73.4873 54.468C73.9113 54.844 74.1233 55.348 74.1233 55.98V58.032C74.1233 58.664 73.9033 59.168 73.4633 59.544C73.0233 59.92 72.4513 60.108 71.7473 60.108C71.3713 60.108 71.0233 60.032 70.7033 59.88C70.3913 59.72 70.1153 59.512 69.8753 59.256L69.8393 59.316C69.8953 59.396 69.9793 59.484 70.0913 59.58V61.692C70.0913 62.236 69.7393 62.508 69.0353 62.508V54.744ZM71.5913 59.184C72.0633 59.184 72.4313 59.08 72.6953 58.872C72.9593 58.656 73.0913 58.36 73.0913 57.984V56.028C73.0913 55.636 72.9593 55.336 72.6953 55.128C72.4313 54.92 72.0593 54.816 71.5793 54.816C71.1553 54.816 70.7993 54.928 70.5113 55.152C70.2233 55.368 70.0793 55.64 70.0793 55.968V58.044C70.0793 58.364 70.2153 58.636 70.4873 58.86C70.7593 59.076 71.1273 59.184 71.5913 59.184ZM77.5472 60.108C77.1392 60.108 76.7552 60.048 76.3952 59.928C76.0352 59.8 75.7432 59.62 75.5192 59.388C75.3032 59.156 75.1952 58.884 75.1952 58.572C75.1952 58.188 75.4272 57.98 75.8912 57.948C75.9712 58.396 76.1592 58.728 76.4552 58.944C76.7592 59.152 77.1432 59.256 77.6072 59.256C78.0712 59.256 78.4312 59.188 78.6872 59.052C78.9432 58.916 79.0712 58.708 79.0712 58.428C79.0712 58.228 79.0192 58.068 78.9152 57.948C78.8112 57.82 78.6432 57.712 78.4112 57.624C78.1872 57.528 77.8632 57.436 77.4392 57.348C76.9112 57.228 76.4912 57.1 76.1792 56.964C75.8672 56.828 75.6272 56.648 75.4592 56.424C75.2992 56.2 75.2192 55.904 75.2192 55.536C75.2192 55.224 75.3152 54.944 75.5072 54.696C75.6992 54.44 75.9632 54.244 76.2992 54.108C76.6432 53.964 77.0312 53.892 77.4632 53.892C77.8632 53.892 78.2392 53.948 78.5912 54.06C78.9512 54.172 79.2392 54.332 79.4552 54.54C79.6792 54.748 79.7912 54.988 79.7912 55.26C79.7912 55.444 79.7192 55.592 79.5752 55.704C79.4312 55.808 79.2312 55.868 78.9752 55.884C78.9512 55.532 78.8072 55.256 78.5432 55.056C78.2872 54.848 77.9272 54.744 77.4632 54.744C77.0792 54.744 76.7752 54.816 76.5512 54.96C76.3272 55.104 76.2152 55.296 76.2152 55.536C76.2152 55.792 76.3192 55.984 76.5272 56.112C76.7432 56.232 77.1072 56.348 77.6192 56.46C78.4592 56.628 79.0752 56.86 79.4672 57.156C79.8672 57.444 80.0672 57.856 80.0672 58.392C80.0672 58.936 79.8472 59.36 79.4072 59.664C78.9672 59.96 78.3472 60.108 77.5472 60.108ZM85.1152 54.84H84.1192C84.1192 54.28 84.3272 54 84.7432 54H85.1152V53.268C85.1152 52.748 85.2632 52.324 85.5592 51.996C85.8552 51.66 86.2992 51.492 86.8912 51.492C87.2272 51.492 87.4872 51.568 87.6712 51.72C87.8552 51.864 87.9472 52.032 87.9472 52.224C87.9472 52.392 87.8952 52.528 87.7912 52.632C87.5432 52.488 87.2752 52.416 86.9872 52.416C86.6912 52.416 86.4792 52.488 86.3512 52.632C86.2232 52.776 86.1592 53.004 86.1592 53.316V54H87.6592C87.6592 54.288 87.5952 54.5 87.4672 54.636C87.3472 54.772 87.1592 54.84 86.9032 54.84H86.1592V59.34C86.1592 59.604 86.0712 59.8 85.8952 59.928C85.7272 60.048 85.4672 60.108 85.1152 60.108V54.84ZM90.5809 60.108C90.0929 60.108 89.6489 60.016 89.2489 59.832C88.8569 59.648 88.5489 59.4 88.3249 59.088C88.1089 58.768 88.0009 58.412 88.0009 58.02V56.052C88.0009 55.652 88.1089 55.288 88.3249 54.96C88.5489 54.632 88.8569 54.372 89.2489 54.18C89.6409 53.988 90.0849 53.892 90.5809 53.892C91.0769 53.892 91.5209 53.988 91.9129 54.18C92.3129 54.372 92.6209 54.632 92.8369 54.96C93.0609 55.288 93.1729 55.652 93.1729 56.052V58.02C93.1729 58.412 93.0609 58.768 92.8369 59.088C92.6129 59.4 92.3049 59.648 91.9129 59.832C91.5209 60.016 91.0769 60.108 90.5809 60.108ZM90.5809 59.208C91.0609 59.208 91.4409 59.096 91.7209 58.872C92.0089 58.64 92.1529 58.34 92.1529 57.972V56.088C92.1529 55.704 92.0089 55.392 91.7209 55.152C91.4409 54.912 91.0609 54.792 90.5809 54.792C90.1089 54.792 89.7289 54.912 89.4409 55.152C89.1529 55.392 89.0089 55.704 89.0089 56.088V57.972C89.0089 58.34 89.1489 58.64 89.4289 58.872C89.7169 59.096 90.1009 59.208 90.5809 59.208ZM97.1628 54.816C96.7148 54.816 96.3428 54.952 96.0468 55.224C95.7508 55.488 95.6028 55.812 95.6028 56.196V59.34C95.6028 59.604 95.5148 59.8 95.3388 59.928C95.1708 60.048 94.9108 60.108 94.5588 60.108V54.78C94.5588 54.188 94.8948 53.892 95.5668 53.892V54.624C95.4388 54.76 95.3508 54.88 95.3027 54.984L95.3508 55.032C95.8628 54.272 96.5028 53.892 97.2708 53.892C97.5588 53.892 97.7788 53.964 97.9308 54.108C98.0828 54.244 98.1588 54.412 98.1588 54.612C98.1588 54.756 98.1228 54.884 98.0508 54.996C97.8268 54.876 97.5308 54.816 97.1628 54.816ZM102.516 52.308C102.516 51.764 102.868 51.492 103.572 51.492V54.42C103.452 54.524 103.368 54.612 103.32 54.684L103.356 54.744C103.596 54.488 103.888 54.284 104.232 54.132C104.584 53.972 104.928 53.892 105.264 53.892C105.976 53.892 106.544 54.08 106.968 54.456C107.392 54.832 107.604 55.336 107.604 55.968V58.02C107.604 58.42 107.504 58.78 107.304 59.1C107.112 59.42 106.84 59.668 106.488 59.844C106.136 60.02 105.736 60.108 105.288 60.108C104.504 60.108 103.844 59.764 103.308 59.076L103.272 59.124C103.32 59.196 103.4 59.296 103.512 59.424C103.512 59.656 103.432 59.828 103.272 59.94C103.112 60.052 102.86 60.108 102.516 60.108V52.308ZM105.06 59.184C105.548 59.184 105.92 59.08 106.176 58.872C106.44 58.664 106.572 58.364 106.572 57.972V56.016C106.572 55.64 106.44 55.348 106.176 55.14C105.912 54.924 105.544 54.816 105.072 54.816C104.656 54.816 104.3 54.928 104.004 55.152C103.708 55.376 103.56 55.644 103.56 55.956V58.032C103.56 58.36 103.704 58.636 103.992 58.86C104.28 59.076 104.636 59.184 105.06 59.184ZM109.952 52.992C109.728 52.992 109.54 52.92 109.388 52.776C109.236 52.632 109.16 52.452 109.16 52.236C109.16 52.02 109.236 51.844 109.388 51.708C109.54 51.564 109.728 51.492 109.952 51.492C110.168 51.492 110.352 51.564 110.504 51.708C110.656 51.844 110.732 52.02 110.732 52.236C110.732 52.452 110.656 52.632 110.504 52.776C110.352 52.92 110.168 52.992 109.952 52.992ZM109.424 54.66C109.424 54.396 109.508 54.204 109.676 54.084C109.852 53.956 110.116 53.892 110.468 53.892V59.34C110.468 59.604 110.38 59.8 110.204 59.928C110.036 60.048 109.776 60.108 109.424 60.108V54.66ZM114.806 62.508C114.39 62.508 114.002 62.44 113.642 62.304C113.282 62.168 112.998 61.984 112.79 61.752C112.582 61.528 112.478 61.284 112.478 61.02C112.478 60.812 112.546 60.66 112.682 60.564C112.826 60.468 113.018 60.42 113.258 60.42C113.274 60.796 113.418 61.092 113.69 61.308C113.97 61.532 114.342 61.644 114.806 61.644C115.83 61.644 116.342 61.148 116.342 60.156V59.46C116.454 59.364 116.538 59.276 116.594 59.196L116.558 59.136C116.326 59.384 116.034 59.588 115.682 59.748C115.338 59.908 114.99 59.988 114.638 59.988C113.95 59.988 113.386 59.8 112.946 59.424C112.514 59.04 112.298 58.536 112.298 57.912V55.98C112.298 55.572 112.398 55.212 112.598 54.9C112.806 54.58 113.086 54.332 113.438 54.156C113.798 53.98 114.194 53.892 114.626 53.892C115.41 53.892 116.066 54.236 116.594 54.924L116.642 54.876L116.402 54.576C116.402 54.352 116.478 54.184 116.63 54.072C116.79 53.952 117.046 53.892 117.398 53.892V60.048C117.398 60.528 117.286 60.952 117.062 61.32C116.846 61.696 116.542 61.988 116.15 62.196C115.758 62.404 115.31 62.508 114.806 62.508ZM114.83 59.076C115.254 59.076 115.614 58.964 115.91 58.74C116.206 58.508 116.354 58.236 116.354 57.924V55.968C116.354 55.64 116.206 55.364 115.91 55.14C115.622 54.916 115.27 54.804 114.854 54.804C114.374 54.804 114.002 54.912 113.738 55.128C113.474 55.336 113.342 55.636 113.342 56.028V57.864C113.342 58.24 113.47 58.536 113.726 58.752C113.99 58.968 114.358 59.076 114.83 59.076ZM122.744 54.84H121.748C121.748 54.28 121.956 54 122.372 54H122.744V53.268C122.744 52.748 122.892 52.324 123.188 51.996C123.484 51.66 123.928 51.492 124.52 51.492C124.856 51.492 125.116 51.568 125.3 51.72C125.484 51.864 125.576 52.032 125.576 52.224C125.576 52.392 125.524 52.528 125.42 52.632C125.172 52.488 124.904 52.416 124.616 52.416C124.32 52.416 124.108 52.488 123.98 52.632C123.852 52.776 123.788 53.004 123.788 53.316V54H125.288C125.288 54.288 125.224 54.5 125.096 54.636C124.976 54.772 124.788 54.84 124.532 54.84H123.788V59.34C123.788 59.604 123.7 59.8 123.524 59.928C123.356 60.048 123.096 60.108 122.744 60.108V54.84ZM128.459 60.108C127.971 60.108 127.535 60.016 127.151 59.832C126.767 59.64 126.467 59.38 126.251 59.052C126.035 58.716 125.927 58.34 125.927 57.924V56.148C125.927 55.724 126.039 55.34 126.263 54.996C126.495 54.652 126.803 54.384 127.187 54.192C127.579 53.992 128.003 53.892 128.459 53.892C128.915 53.892 129.331 53.988 129.707 54.18C130.091 54.372 130.391 54.636 130.607 54.972C130.831 55.308 130.943 55.688 130.943 56.112V56.88C130.943 57.008 130.895 57.116 130.799 57.204C130.703 57.292 130.587 57.336 130.451 57.336H126.947V57.876C126.947 58.284 127.075 58.612 127.331 58.86C127.595 59.108 127.971 59.232 128.459 59.232C128.947 59.232 129.319 59.124 129.575 58.908C129.831 58.692 129.959 58.4 129.959 58.032C130.199 58.016 130.399 58.064 130.559 58.176C130.727 58.28 130.811 58.436 130.811 58.644C130.811 58.9 130.699 59.14 130.475 59.364C130.259 59.588 129.971 59.768 129.611 59.904C129.251 60.04 128.867 60.108 128.459 60.108ZM129.971 56.52V56.112C129.971 55.712 129.831 55.388 129.551 55.14C129.279 54.884 128.915 54.756 128.459 54.756C128.003 54.756 127.635 54.884 127.355 55.14C127.083 55.388 126.947 55.712 126.947 56.112V56.52H129.971ZM134.145 60.108C133.457 60.108 132.901 59.924 132.477 59.556C132.061 59.188 131.853 58.704 131.853 58.104C131.853 57.496 132.073 57.008 132.513 56.64C132.953 56.264 133.533 56.076 134.253 56.076C135.021 56.076 135.653 56.348 136.149 56.892L136.197 56.844C136.109 56.748 136.009 56.648 135.897 56.544V56.04C135.897 55.632 135.769 55.316 135.513 55.092C135.257 54.868 134.893 54.756 134.421 54.756C133.581 54.756 132.981 55.088 132.621 55.752C132.493 55.688 132.385 55.604 132.297 55.5C132.217 55.388 132.177 55.276 132.177 55.164C132.177 54.948 132.285 54.744 132.501 54.552C132.717 54.352 133.001 54.192 133.353 54.072C133.713 53.952 134.089 53.892 134.48 53.892C135.241 53.892 135.837 54.08 136.269 54.456C136.709 54.832 136.929 55.352 136.929 56.016V59.304C136.929 59.584 136.849 59.788 136.689 59.916C136.529 60.044 136.277 60.108 135.933 60.108V59.544C136.101 59.368 136.193 59.264 136.209 59.232L136.161 59.184C135.641 59.8 134.969 60.108 134.145 60.108ZM134.325 59.28C134.821 59.28 135.209 59.176 135.489 58.968C135.777 58.76 135.921 58.472 135.921 58.104C135.921 57.736 135.781 57.444 135.501 57.228C135.221 57.012 134.837 56.904 134.349 56.904C133.893 56.904 133.533 57.012 133.269 57.228C133.013 57.436 132.885 57.728 132.885 58.104C132.885 58.48 133.009 58.772 133.257 58.98C133.513 59.18 133.869 59.28 134.325 59.28ZM140.4 60.108C139.832 60.108 139.408 59.948 139.128 59.628C138.848 59.3 138.708 58.872 138.708 58.344V54.84H137.592C137.592 54.568 137.652 54.36 137.772 54.216C137.892 54.072 138.056 54 138.264 54H138.72V52.86C138.72 52.596 138.804 52.404 138.972 52.284C139.148 52.156 139.408 52.092 139.752 52.092V54H141.348C141.348 54.56 141.096 54.84 140.592 54.84H139.764V58.308C139.764 58.628 139.82 58.856 139.932 58.992C140.052 59.12 140.264 59.184 140.568 59.184C140.848 59.184 141.112 59.112 141.36 58.968C141.464 59.072 141.516 59.212 141.516 59.388C141.516 59.58 141.416 59.748 141.216 59.892C141.016 60.036 140.744 60.108 140.4 60.108ZM144.953 60.108C144.545 60.108 144.161 60.048 143.801 59.928C143.441 59.8 143.149 59.62 142.925 59.388C142.709 59.156 142.601 58.884 142.601 58.572C142.601 58.188 142.833 57.98 143.297 57.948C143.377 58.396 143.565 58.728 143.861 58.944C144.165 59.152 144.549 59.256 145.013 59.256C145.477 59.256 145.837 59.188 146.093 59.052C146.349 58.916 146.477 58.708 146.477 58.428C146.477 58.228 146.425 58.068 146.321 57.948C146.217 57.82 146.049 57.712 145.817 57.624C145.593 57.528 145.269 57.436 144.845 57.348C144.317 57.228 143.897 57.1 143.585 56.964C143.273 56.828 143.033 56.648 142.865 56.424C142.705 56.2 142.625 55.904 142.625 55.536C142.625 55.224 142.721 54.944 142.913 54.696C143.105 54.44 143.369 54.244 143.705 54.108C144.049 53.964 144.437 53.892 144.869 53.892C145.269 53.892 145.645 53.948 145.997 54.06C146.357 54.172 146.645 54.332 146.861 54.54C147.085 54.748 147.197 54.988 147.197 55.26C147.197 55.444 147.125 55.592 146.981 55.704C146.837 55.808 146.637 55.868 146.381 55.884C146.357 55.532 146.213 55.256 145.949 55.056C145.693 54.848 145.333 54.744 144.869 54.744C144.485 54.744 144.181 54.816 143.957 54.96C143.733 55.104 143.621 55.296 143.621 55.536C143.621 55.792 143.725 55.984 143.933 56.112C144.149 56.232 144.513 56.348 145.025 56.46C145.865 56.628 146.481 56.86 146.873 57.156C147.273 57.444 147.473 57.856 147.473 58.392C147.473 58.936 147.253 59.36 146.813 59.664C146.373 59.96 145.753 60.108 144.953 60.108Z" fill="white"/>
<rect x="128.5" y="20.5" width="11" height="11" fill="#EF4444" stroke="#523838"/>
<circle cx="134" cy="26" r="3" fill="white"/>
<rect x="140.5" y="32.5" width="11" height="11" fill="#EF4444" stroke="#523838"/>
<circle cx="146" cy="38" r="3" fill="white"/>
<rect x="128.5" y="32.5" width="11" height="11" fill="#EF4444" stroke="#523838"/>
<circle cx="134" cy="38" r="3" fill="white"/>
<rect x="140.5" y="20.5" width="11" height="11" fill="#EF4444" stroke="#523838"/>
<circle cx="146" cy="26" r="3" fill="white"/>
</svg>
